<svg width="24" height="24" viewBox="0 0 24 24" fill="none" xmlns="http://www.w3.org/2000/svg">
<path fill-rule="evenodd" clip-rule="evenodd" d="M16.9497 7.05024C17.2426 7.34313 17.2426 7.818 16.9497 8.1109L13.0607 11.9999L16.9499 15.8891C17.2428 16.182 17.2428 16.6568 16.9499 16.9497C16.657 17.2426 16.1822 17.2426 15.8893 16.9497L12.0001 13.0605L8.1109 16.9497C7.818 17.2426 7.34313 17.2426 7.05024 16.9497C6.75734 16.6568 6.75734 16.182 7.05024 15.8891L10.9394 11.9999L7.05043 8.1109C6.75754 7.818 6.75754 7.34313 7.05043 7.05024C7.34332 6.75734 7.8182 6.75734 8.11109 7.05024L12.0001 10.9392L15.8891 7.05024C16.182 6.75734 16.6568 6.75734 16.9497 7.05024Z" fill="#C5C6C6"/>
</svg>
